# xmcd
#
# Track frame offsets:
#	150
#	18243
#	33853
#	51450
#	70013
#	86725
#	105680
#	121452
#	137668
#	154843
#	172365
#	189660
#
# Disc length: 2736 seconds
#
# Revision: 0
# Processed by: cddbd v1.5.1PL0 Copyright (c) Steve Scherf et al.
# Submitted via: audiograbber 1.83.01
#
DISCID=a70aae0c
DTITLE=Shoes - Propeller
DYEAR=1994
DGENRE=blues
TTITLE0=Animal Attraction
TTITLE1=Treading Water
TTITLE2=Don't Do This to Me
TTITLE3=The Last of You
TTITLE4=Slipping Through Your Fingers
TTITLE5=Tore a Hole
TTITLE6=Bittersweet
TTITLE7=If All I Had Was You
TTITLE8=In My Mind
TTITLE9=Silence is Deadly
TTITLE10=A Thing of the Past
TTITLE11=Never Ending
EXTD=
EXTT0=
EXTT1=
EXTT2=
EXTT3=
EXTT4=
EXTT5=
EXTT6=
EXTT7=
EXTT8=
EXTT9=
EXTT10=
EXTT11=
PLAYORDER=
